<?xml version="1.0" standalone="no"?>
<!DOCTYPE svg PUBLIC "-//W3C//DTD SVG 20010904//EN"
 "http://www.w3.org/TR/2001/REC-SVG-20010904/DTD/svg10.dtd">
<svg version="1.0" xmlns="http://www.w3.org/2000/svg"
 width="700.000000pt" height="700.000000pt" viewBox="0 0 700.000000 700.000000"
 preserveAspectRatio="xMidYMid meet">
<metadata>
Created by potrace 1.14, written by Peter Selinger 2001-2017
</metadata>
<g transform="translate(0.000000,700.000000) scale(0.100000,-0.100000)"
fill="#000000" stroke="none">
<path d="M1373 5638 c-532 -475 -850 -1113 -930 -1863 -15 -141 -8 -560 12
-664 1 -9 6 -36 10 -61 3 -25 13 -79 22 -120 14 -69 21 -99 37 -170 15 -63 82
-265 119 -355 47 -116 154 -333 191 -388 14 -21 26 -40 26 -43 0 -10 101 -155
176 -250 93 -119 138 -168 269 -296 108 -105 142 -129 153 -111 6 9 227 245
291 311 13 13 8 20 -40 60 -95 79 -265 258 -341 360 -127 168 -221 331 -309
537 -15 33 -60 159 -64 176 -2 9 -12 47 -24 85 -36 124 -66 286 -78 429 -14
153 -8 438 12 565 29 179 53 284 100 425 92 278 259 576 440 785 51 58 207
214 264 263 46 39 52 47 40 60 -69 69 -285 301 -287 308 -8 19 -33 7 -89 -43z"/>
<path d="M5409 5539 c-79 -84 -150 -158 -158 -166 -12 -13 -6 -21 40 -61 57
-48 214 -204 264 -262 171 -197 350 -512 434 -766 29 -89 75 -260 85 -319 19
-114 26 -162 35 -262 8 -90 6 -390 -3 -453 -3 -19 -8 -57 -11 -85 -21 -177
-91 -432 -170 -615 -141 -329 -370 -640 -634 -862 l-55 -46 101 -103 c55 -57
128 -133 161 -169 l60 -64 73 64 c108 96 214 205 284 291 74 92 98 123 147
194 137 199 241 400 326 630 38 105 93 286 106 350 4 17 9 41 12 55 12 58 36
197 39 230 2 19 7 64 12 100 10 86 10 463 0 565 -41 412 -187 863 -388 1193
-21 35 -39 68 -39 72 0 5 -3 10 -7 12 -5 2 -32 39 -62 83 -108 159 -252 324
-428 488 -33 31 -66 57 -71 57 -5 0 -74 -68 -153 -151z"/>
<path d="M2225 4988 c-374 -311 -605 -718 -680 -1198 -24 -155 -24 -429 0
-575 11 -69 15 -91 21 -115 3 -14 7 -38 10 -53 18 -99 83 -274 155 -420 85
-172 184 -311 318 -450 70 -73 222 -207 234 -207 7 0 30 23 192 195 72 75 131
140 132 144 1 3 -21 22 -49 41 -310 210 -530 592 -574 995 -12 108 -6 305 12
398 55 290 180 541 366 738 65 68 222 199 240 199 18 0 5 16 -127 155 -163
173 -185 195 -193 195 -4 0 -29 -19 -57 -42z"/>
<path d="M4698 5021 c-2 -7 -245 -265 -303 -323 -3 -3 29 -33 73 -66 356 -271
557 -688 555 -1147 -1 -82 -4 -121 -19 -225 -18 -120 -70 -281 -132 -405 -32
-65 -117 -204 -131 -215 -3 -3 -19 -22 -34 -43 -38 -50 -160 -170 -215 -210
-24 -18 -57 -43 -73 -57 l-29 -25 93 -96 c50 -53 123 -128 160 -168 78 -83 69
-83 175 8 296 255 495 578 597 967 60 230 77 561 39 780 -18 109 -54 260 -71
304 -3 8 -7 20 -8 25 -9 37 -63 164 -106 249 -116 230 -266 420 -465 587 -80
67 -99 78 -106 60z"/>
<path d="M3389 4376 c-2 -2 -22 -7 -44 -10 -218 -33 -441 -176 -575 -371 -45
-65 -104 -197 -124 -275 -24 -93 -32 -262 -16 -357 13 -80 60 -227 88 -272 98
-162 191 -260 318 -339 70 -44 191 -96 249 -108 146 -30 315 -30 435 1 287 75
525 300 618 585 32 98 37 133 37 280 0 111 -4 150 -24 220 -69 248 -243 456
-474 566 -119 56 -204 75 -353 80 -72 2 -132 2 -135 0z"/>
</g>
</svg>
